<svg xmlns="http://www.w3.org/2000/svg" viewBox="0 0 64 64" role="img" aria-label="Eggzy favicon">
  <rect width="64" height="64" rx="18" fill="#0e2418"/>
  <ellipse cx="32" cy="31" rx="18" ry="22" fill="#fffdf2" stroke="#24352d" stroke-width="3"/>
  <path d="M17 37c4 5 9 8 15 8s11-3 15-8c-1 9-7 15-15 15s-14-6-15-15Z" fill="#ffd34d"/>
  <circle cx="25" cy="28" r="3.8" fill="#24352d"/>
  <circle cx="39" cy="28" r="3.8" fill="#24352d"/>
  <circle cx="26.2" cy="26.8" r="1.2" fill="#ffffff"/>
  <circle cx="40.2" cy="26.8" r="1.2" fill="#ffffff"/>
  <path d="M27 37c2.6 2.8 7.4 2.8 10 0" fill="none" stroke="#24352d" stroke-linecap="round" stroke-width="2.5"/>
  <path d="M21 20c1.8-1.8 4-2.8 6.4-3.1" fill="none" stroke="#24352d" stroke-linecap="round" stroke-width="2.5"/>
  <path d="M42.8 20c-1.8-1.8-4-2.8-6.4-3.1" fill="none" stroke="#24352d" stroke-linecap="round" stroke-width="2.5"/>
</svg>
